{
	"asset":{
		"generator":"Khronos glTF Blender I/O v4.0.44",
		"version":"2.0"
	},
	"extensionsUsed":[
		"KHR_materials_specular",
		"KHR_materials_ior"
	],
	"scene":0,
	"scenes":[
		{
			"name":"Scene",
			"nodes":[
				0
			]
		}
	],
	"nodes":[
		{
			"mesh":0,
			"name":"BU_Decimated_texturedMesh.001",
			"rotation":[
				0.70710688829422,
				0,
				0,
				0.7071066498756409
			]
		}
	],
	"materials":[
		{
			"doubleSided":true,
			"extensions":{
				"KHR_materials_specular":{
					"specularFactor":0
				},
				"KHR_materials_ior":{
					"ior":1.4500000476837158
				}
			},
			"name":"TextureAtlas_1001.001",
			"pbrMetallicRoughness":{
				"baseColorTexture":{
					"index":0
				},
				"metallicFactor":0
			}
		}
	],
	"meshes":[
		{
			"name":"BU_Decimated_texturedMesh.001",
			"primitives":[
				{
					"attributes":{
						"POSITION":0,
						"NORMAL":1,
						"TEXCOORD_0":2
					},
					"indices":3,
					"material":0
				}
			]
		}
	],
	"textures":[
		{
			"sampler":0,
			"source":0
		}
	],
	"images":[
		{
			"mimeType":"image/png",
			"name":"texture_1001",
			"uri":"texture_1001.png"
		}
	],
	"accessors":[
		{
			"bufferView":0,
			"componentType":5126,
			"count":15364,
			"max":[
				0.07748100161552429,
				0.12230399996042252,
				-0.011326000094413757
			],
			"min":[
				-0.11846400052309036,
				-0.15220199525356293,
				-0.6815209984779358
			],
			"type":"VEC3"
		},
		{
			"bufferView":1,
			"componentType":5126,
			"count":15364,
			"type":"VEC3"
		},
		{
			"bufferView":2,
			"componentType":5126,
			"count":15364,
			"type":"VEC2"
		},
		{
			"bufferView":3,
			"componentType":5123,
			"count":37059,
			"type":"SCALAR"
		}
	],
	"bufferViews":[
		{
			"buffer":0,
			"byteLength":184368,
			"byteOffset":0,
			"target":34962
		},
		{
			"buffer":0,
			"byteLength":184368,
			"byteOffset":184368,
			"target":34962
		},
		{
			"buffer":0,
			"byteLength":122912,
			"byteOffset":368736,
			"target":34962
		},
		{
			"buffer":0,
			"byteLength":74118,
			"byteOffset":491648,
			"target":34963
		}
	],
	"samplers":[
		{
			"magFilter":9729,
			"minFilter":9987
		}
	],
	"buffers":[
		{
			"byteLength":565768,
			"uri":"babyy.bin"
		}
	]
}
